<svg width="173" height="45" viewBox="0 0 173 45" fill="none" xmlns="http://www.w3.org/2000/svg">
<path d="M2.5 2H18L21 28.5H171" stroke="#2F3B59" stroke-width="3.5" stroke-linecap="round" stroke-linejoin="round"/>
<circle cx="30" cy="38" r="7" fill="#2F3B59"/>
<circle cx="162" cy="38" r="7" fill="#2F3B59"/>
<path d="M27.648 21C27.296 21 27 20.88 26.76 20.64C26.52 20.4 26.4 20.104 26.4 19.752V3.504C26.4 3.136 26.52 2.84 26.76 2.616C27 2.376 27.296 2.256 27.648 2.256H33.384C34.472 2.256 35.424 2.472 36.24 2.904C37.072 3.32 37.72 3.904 38.184 4.656C38.664 5.408 38.904 6.272 38.904 7.248C38.904 8.032 38.688 8.744 38.256 9.384C37.84 10.008 37.264 10.504 36.528 10.872C37.584 11.128 38.432 11.632 39.072 12.384C39.712 13.136 40.032 14.12 40.032 15.336C40.032 16.44 39.768 17.416 39.24 18.264C38.728 19.112 38.008 19.784 37.08 20.28C36.152 20.76 35.088 21 33.888 21H27.648ZM28.896 9.96H33.384C34.296 9.96 35.04 9.736 35.616 9.288C36.208 8.84 36.504 8.16 36.504 7.248C36.504 6.336 36.208 5.664 35.616 5.232C35.04 4.784 34.296 4.56 33.384 4.56H28.896V9.96ZM28.896 18.696H33.888C34.976 18.696 35.872 18.416 36.576 17.856C37.28 17.28 37.632 16.44 37.632 15.336C37.632 14.312 37.28 13.544 36.576 13.032C35.872 12.52 34.976 12.264 33.888 12.264H28.896V18.696ZM45.2677 21C44.9157 21 44.6197 20.888 44.3797 20.664C44.1557 20.424 44.0437 20.128 44.0437 19.776V9.096C44.0437 8.728 44.1557 8.432 44.3797 8.208C44.6197 7.984 44.9157 7.872 45.2677 7.872C45.6357 7.872 45.9317 7.984 46.1557 8.208C46.3797 8.432 46.4917 8.728 46.4917 9.096V19.776C46.4917 20.128 46.3797 20.424 46.1557 20.664C45.9317 20.888 45.6357 21 45.2677 21ZM45.2677 5.736C44.8357 5.736 44.4597 5.584 44.1397 5.28C43.8357 4.96 43.6837 4.584 43.6837 4.152C43.6837 3.72 43.8357 3.352 44.1397 3.048C44.4597 2.728 44.8357 2.568 45.2677 2.568C45.6997 2.568 46.0677 2.728 46.3717 3.048C46.6917 3.352 46.8517 3.72 46.8517 4.152C46.8517 4.584 46.6917 4.96 46.3717 5.28C46.0677 5.584 45.6997 5.736 45.2677 5.736ZM52.5219 21C52.1699 21 51.8819 20.896 51.6579 20.688C51.4499 20.464 51.3459 20.176 51.3459 19.824V3.432C51.3459 3.08 51.4499 2.8 51.6579 2.592C51.8819 2.368 52.1699 2.256 52.5219 2.256C52.8739 2.256 53.1539 2.368 53.3619 2.592C53.5859 2.8 53.6979 3.08 53.6979 3.432V13.2L59.5299 7.992C59.7699 7.768 60.0339 7.664 60.3219 7.68C60.6259 7.696 60.8819 7.824 61.0899 8.064C61.3139 8.304 61.4179 8.568 61.4019 8.856C61.3859 9.144 61.2579 9.4 61.0179 9.624L56.6019 13.56L61.2579 19.272C61.4659 19.528 61.5539 19.808 61.5219 20.112C61.5059 20.4 61.3619 20.656 61.0899 20.88C60.8339 21.088 60.5459 21.176 60.2259 21.144C59.9219 21.128 59.6659 20.992 59.4579 20.736L54.8979 15.096L53.6979 16.152V19.824C53.6979 20.176 53.5859 20.464 53.3619 20.688C53.1539 20.896 52.8739 21 52.5219 21ZM66.51 21C65.71 21 65.31 20.6 65.31 19.8V9.072C65.31 8.272 65.71 7.872 66.51 7.872C67.31 7.872 67.71 8.272 67.71 9.072V9.528C68.19 8.968 68.774 8.528 69.462 8.208C70.166 7.888 70.926 7.728 71.742 7.728C72.702 7.728 73.414 7.888 73.878 8.208C74.358 8.512 74.542 8.88 74.43 9.312C74.35 9.648 74.19 9.872 73.95 9.984C73.71 10.08 73.43 10.096 73.11 10.032C72.086 9.824 71.166 9.808 70.35 9.984C69.534 10.16 68.886 10.488 68.406 10.968C67.942 11.448 67.71 12.056 67.71 12.792V19.8C67.71 20.6 67.31 21 66.51 21ZM78.7459 21C78.3939 21 78.0979 20.888 77.8579 20.664C77.6339 20.424 77.5219 20.128 77.5219 19.776V9.096C77.5219 8.728 77.6339 8.432 77.8579 8.208C78.0979 7.984 78.3939 7.872 78.7459 7.872C79.1139 7.872 79.4099 7.984 79.6339 8.208C79.8579 8.432 79.9699 8.728 79.9699 9.096V19.776C79.9699 20.128 79.8579 20.424 79.6339 20.664C79.4099 20.888 79.1139 21 78.7459 21ZM78.7459 5.736C78.3139 5.736 77.9379 5.584 77.6179 5.28C77.3139 4.96 77.1619 4.584 77.1619 4.152C77.1619 3.72 77.3139 3.352 77.6179 3.048C77.9379 2.728 78.3139 2.568 78.7459 2.568C79.1779 2.568 79.5459 2.728 79.8499 3.048C80.1699 3.352 80.3299 3.72 80.3299 4.152C80.3299 4.584 80.1699 4.96 79.8499 5.28C79.5459 5.584 79.1779 5.736 78.7459 5.736Z" fill="#2F3B59"/>
<path d="M86.3121 21C85.9601 21 85.6641 20.88 85.4241 20.64C85.1841 20.4 85.0641 20.104 85.0641 19.752V3.504C85.0641 3.136 85.1841 2.84 85.4241 2.616C85.6641 2.376 85.9601 2.256 86.3121 2.256H92.0481C93.1361 2.256 94.0881 2.472 94.9041 2.904C95.7361 3.32 96.3841 3.904 96.8481 4.656C97.3281 5.408 97.5681 6.272 97.5681 7.248C97.5681 8.032 97.3521 8.744 96.9201 9.384C96.5041 10.008 95.9281 10.504 95.1921 10.872C96.2481 11.128 97.0961 11.632 97.7361 12.384C98.3761 13.136 98.6961 14.12 98.6961 15.336C98.6961 16.44 98.4321 17.416 97.9041 18.264C97.3921 19.112 96.6721 19.784 95.7441 20.28C94.8161 20.76 93.7521 21 92.5521 21H86.3121ZM87.5601 9.96H92.0481C92.9601 9.96 93.7041 9.736 94.2801 9.288C94.8721 8.84 95.1681 8.16 95.1681 7.248C95.1681 6.336 94.8721 5.664 94.2801 5.232C93.7041 4.784 92.9601 4.56 92.0481 4.56H87.5601V9.96ZM87.5601 18.696H92.5521C93.6401 18.696 94.5361 18.416 95.2401 17.856C95.9441 17.28 96.2961 16.44 96.2961 15.336C96.2961 14.312 95.9441 13.544 95.2401 13.032C94.5361 12.52 93.6401 12.264 92.5521 12.264H87.5601V18.696ZM107.94 21.096C106.772 21.096 105.724 20.808 104.796 20.232C103.868 19.64 103.132 18.848 102.588 17.856C102.06 16.848 101.796 15.712 101.796 14.448C101.796 13.184 102.084 12.048 102.66 11.04C103.252 10.032 104.044 9.24 105.036 8.664C106.044 8.072 107.172 7.776 108.42 7.776C109.668 7.776 110.788 8.072 111.78 8.664C112.772 9.24 113.556 10.032 114.132 11.04C114.724 12.048 115.02 13.184 115.02 14.448V19.8C115.02 20.152 114.9 20.448 114.66 20.688C114.436 20.912 114.148 21.024 113.796 21.024C113.444 21.024 113.148 20.912 112.908 20.688C112.684 20.448 112.572 20.152 112.572 19.8V18.912C112.012 19.584 111.332 20.12 110.532 20.52C109.748 20.904 108.884 21.096 107.94 21.096ZM108.42 18.936C109.236 18.936 109.964 18.744 110.604 18.36C111.244 17.96 111.748 17.424 112.116 16.752C112.484 16.064 112.668 15.296 112.668 14.448C112.668 13.584 112.484 12.816 112.116 12.144C111.748 11.456 111.244 10.92 110.604 10.536C109.964 10.136 109.236 9.936 108.42 9.936C107.62 9.936 106.892 10.136 106.236 10.536C105.596 10.92 105.084 11.456 104.7 12.144C104.332 12.816 104.148 13.584 104.148 14.448C104.148 15.296 104.332 16.064 104.7 16.752C105.084 17.424 105.596 17.96 106.236 18.36C106.892 18.744 107.62 18.936 108.42 18.936ZM119.491 21C118.739 21 118.363 20.624 118.363 19.872C118.363 19.552 118.435 19.296 118.579 19.104L125.371 10.128H119.251C118.499 10.128 118.123 9.752 118.123 9C118.123 8.248 118.499 7.872 119.251 7.872H127.435C128.187 7.872 128.563 8.248 128.563 9C128.563 9.32 128.491 9.576 128.347 9.768L121.579 18.744H127.675C128.427 18.744 128.803 19.12 128.803 19.872C128.803 20.624 128.427 21 127.675 21H119.491ZM132.752 21C132 21 131.624 20.624 131.624 19.872C131.624 19.552 131.696 19.296 131.84 19.104L138.632 10.128H132.512C131.76 10.128 131.384 9.752 131.384 9C131.384 8.248 131.76 7.872 132.512 7.872H140.696C141.448 7.872 141.824 8.248 141.824 9C141.824 9.32 141.752 9.576 141.608 9.768L134.84 18.744H140.936C141.688 18.744 142.064 19.12 142.064 19.872C142.064 20.624 141.688 21 140.936 21H132.752ZM150.488 21.096C149.32 21.096 148.272 20.808 147.344 20.232C146.416 19.64 145.68 18.848 145.136 17.856C144.608 16.848 144.344 15.712 144.344 14.448C144.344 13.184 144.632 12.048 145.208 11.04C145.8 10.032 146.592 9.24 147.584 8.664C148.592 8.072 149.72 7.776 150.968 7.776C152.216 7.776 153.336 8.072 154.328 8.664C155.32 9.24 156.104 10.032 156.68 11.04C157.272 12.048 157.568 13.184 157.568 14.448V19.8C157.568 20.152 157.448 20.448 157.208 20.688C156.984 20.912 156.696 21.024 156.344 21.024C155.992 21.024 155.696 20.912 155.456 20.688C155.232 20.448 155.12 20.152 155.12 19.8V18.912C154.56 19.584 153.88 20.12 153.08 20.52C152.296 20.904 151.432 21.096 150.488 21.096ZM150.968 18.936C151.784 18.936 152.512 18.744 153.152 18.36C153.792 17.96 154.296 17.424 154.664 16.752C155.032 16.064 155.216 15.296 155.216 14.448C155.216 13.584 155.032 12.816 154.664 12.144C154.296 11.456 153.792 10.92 153.152 10.536C152.512 10.136 151.784 9.936 150.968 9.936C150.168 9.936 149.44 10.136 148.784 10.536C148.144 10.92 147.632 11.456 147.248 12.144C146.88 12.816 146.696 13.584 146.696 14.448C146.696 15.296 146.88 16.064 147.248 16.752C147.632 17.424 148.144 17.96 148.784 18.36C149.44 18.744 150.168 18.936 150.968 18.936ZM162.712 21C161.912 21 161.512 20.6 161.512 19.8V9.072C161.512 8.272 161.912 7.872 162.712 7.872C163.512 7.872 163.912 8.272 163.912 9.072V9.528C164.392 8.968 164.976 8.528 165.664 8.208C166.368 7.888 167.128 7.728 167.944 7.728C168.904 7.728 169.616 7.888 170.08 8.208C170.56 8.512 170.744 8.88 170.632 9.312C170.552 9.648 170.392 9.872 170.152 9.984C169.912 10.08 169.632 10.096 169.312 10.032C168.288 9.824 167.368 9.808 166.552 9.984C165.736 10.16 165.088 10.488 164.608 10.968C164.144 11.448 163.912 12.056 163.912 12.792V19.8C163.912 20.6 163.512 21 162.712 21Z" fill="#19916B"/>
</svg>
